<svg width="72" height="36" viewBox="0 0 72 36" fill="none" xmlns="http://www.w3.org/2000/svg">
<path fill-rule="evenodd" clip-rule="evenodd" d="M4.61464 35.1468C2.08432 35.1434 0.0028335 33.0625 0 30.5316V4.61521C0.0028335 2.08433 2.08432 0.00340021 4.61464 0H67.3854C69.9157 0.00340021 71.9972 2.08433 72 4.61521V30.5316C71.9972 33.0625 69.9157 35.1434 67.3854 35.1468H4.61464Z" fill="#005F86"/>
<path d="M53.1288 24.4421H55.9376L50.1882 9.80518H46.9843L41.2349 24.4421H44.0438L45.119 21.6332H52.0535L53.1288 24.4421ZM48.5863 11.9777L51.3293 19.373H45.8432L48.5863 11.9777Z" fill="white"/>
<path d="M62.6494 18.0563H66.4677V16.0374H62.6494V11.846H60.433V16.0374H56.6147V18.0563H60.433V22.4013H62.6494V18.0563Z" fill="white"/>
<path d="M0.836426 4.69341C0.836426 2.49557 2.61813 0.713867 4.81596 0.713867H36.3401V34.5226H4.81596C2.61812 34.5226 0.836426 32.7409 0.836426 30.5431V4.69341Z" fill="white"/>
<path fill-rule="evenodd" clip-rule="evenodd" d="M13.6797 28.9567C14.3909 29.2734 14.7406 29.482 14.8766 30.3655C15.1061 31.908 13.6865 32.494 12.3457 32.494H9.20508V25.7588H12.3729C13.5075 25.7588 14.5462 26.2762 14.5462 27.5444C14.5462 28.1786 14.217 28.641 13.6797 28.9567ZM19.969 28.9567C20.6796 29.2734 21.0293 29.482 21.1653 30.3655C21.3948 31.908 19.9735 32.494 18.6344 32.494H15.4937V25.7588H18.6616C19.7961 25.7588 20.8349 26.2762 20.8349 27.5444C20.8349 28.1786 20.5056 28.641 19.969 28.9567ZM27.4528 30.3666C27.3162 29.4831 26.9666 29.2746 26.2554 28.9578C26.7932 28.6421 27.1241 28.1797 27.1241 27.5444C27.1241 26.2762 26.0848 25.7588 24.9503 25.7588H21.7824V32.494H24.9231C26.2622 32.494 27.6835 31.908 27.4545 30.3655L27.4528 30.3666ZM12.4738 31.2212H10.6349V29.6854H12.4738C13.8242 29.6854 13.7409 31.2212 12.4738 31.2212ZM18.7642 31.2201H16.9275V29.6854H18.7625C20.1118 29.6854 20.0296 31.2212 18.7625 31.2212L18.7642 31.2201ZM23.2162 29.6854V31.2212H25.0511C26.3183 31.2212 26.4004 29.6854 25.0511 29.6854H23.2162ZM10.6349 27.0474H12.284C13.312 27.0474 13.3488 28.484 12.348 28.484H10.6349V27.0474ZM23.2218 27.0463H24.8613C25.8899 27.0463 25.9267 28.4823 24.9259 28.4823H23.2162L23.2218 27.0463ZM16.9292 27.0446H18.5743C19.6023 27.0446 19.6392 28.4812 18.6384 28.4812H16.9275L16.9292 27.0446ZM12.2432 22.7456H15.3056L15.8519 24.6021H20.857L21.4033 22.7456H24.4669L24.0656 21.3799H12.6444L12.2432 22.7456ZM15.9528 11.7369L14.4686 13.7849C13.7245 14.8101 13.9552 16.6258 14.9712 17.3591L17.7237 19.346C18.1958 19.6871 18.2326 20.0283 18.0088 20.3847L18.4089 20.6823L19.8029 18.7521C20.6643 17.5586 20.5895 15.935 19.3116 15.0056L16.5342 12.9819C16.2027 12.7388 16.167 12.4016 16.3512 12.0265L15.9516 11.7408L15.9528 11.7369ZM18.334 2.698L16.0225 5.89476C14.9384 7.39368 15.3328 9.94951 16.8142 11.0415L20.6139 13.8314C21.384 14.3964 21.4849 15.837 20.9239 16.5742L21.2463 16.8157L23.8673 13.1293C25.0443 11.4734 24.9763 9.02635 23.1278 7.6844L19.0628 4.73132C18.4939 4.3216 18.2094 3.61549 18.6831 2.94565L18.334 2.698Z" fill="#005F86"/>
</svg>
