<svg width="104" height="40" viewBox="0 0 104 40" fill="none" xmlns="http://www.w3.org/2000/svg">
<path d="M1.94092 20.9604H20.9805V40H1.94092V20.9604ZM22.5671 20.9604H41.6067V40H22.5671V20.9604ZM43.1933 20.9604H62.2328V40H43.1933V20.9604ZM63.8195 20.9604H82.859V40H63.8195V20.9604ZM84.4456 20.9604H103.485V40H84.4456V20.9604Z" fill="#00B67A"/>
<path d="M11.4608 33.7973L14.3564 33.0635L15.5662 36.7921L11.4608 33.7973ZM18.1246 28.9779H13.0276L11.4608 24.1784L9.89397 28.9779H4.79692L8.92216 31.9528L7.35536 36.7524L11.4806 33.7775L14.0192 31.9528L18.1246 28.9779ZM32.0869 33.7973L34.9825 33.0635L36.1923 36.7921L32.0869 33.7973ZM38.7508 28.9779H33.6537L32.0869 24.1784L30.5202 28.9779H25.4231L29.5483 31.9528L27.9815 36.7524L32.1068 33.7775L34.6454 31.9528L38.7508 28.9779ZM52.7131 33.7973L55.6087 33.0635L56.8185 36.7921L52.7131 33.7973ZM59.377 28.9779H54.2799L52.7131 24.1784L51.1463 28.9779H46.0493L50.1745 31.9528L48.6077 36.7524L52.733 33.7775L55.2716 31.9528L59.377 28.9779ZM73.3393 33.7973L76.2349 33.0635L77.4447 36.7921L73.3393 33.7973ZM80.0032 28.9779H74.9061L73.3393 24.1784L71.7725 28.9779H66.6755L70.8007 31.9528L69.2339 36.7524L73.3591 33.7775L75.8977 31.9528L80.0032 28.9779ZM93.9655 33.7973L96.8611 33.0635L98.0709 36.7921L93.9655 33.7973ZM100.629 28.9779H95.5323L93.9655 24.1784L92.3987 28.9779H87.3016L91.4269 31.9528L89.8601 36.7524L93.9853 33.7775L96.5239 31.9528L100.629 28.9779Z" fill="white"/>
<path d="M19.2517 6.20186H26.4636V7.54443H23.624V15.1127H22.0676V7.54443H19.2398L19.2517 6.20186ZM26.1547 8.66126H27.4854V9.90878H27.5091C27.5567 9.73057 27.6398 9.56423 27.7587 9.3979C27.8775 9.23156 28.02 9.0771 28.1983 8.94641C28.3646 8.80383 28.5547 8.6969 28.7686 8.61374C28.9705 8.53057 29.1844 8.48304 29.3983 8.48304C29.5646 8.48304 29.6834 8.49492 29.7428 8.49492C29.8022 8.50681 29.8735 8.51869 29.9329 8.51869V9.88502C29.8379 9.86126 29.7309 9.84938 29.624 9.8375C29.5171 9.82562 29.422 9.81374 29.3151 9.81374C29.0775 9.81374 28.8517 9.86126 28.6379 9.95631C28.424 10.0514 28.2458 10.1939 28.0794 10.3722C27.925 10.5622 27.7943 10.788 27.6992 11.0613C27.6042 11.3345 27.5567 11.6553 27.5567 12.0118V15.0771H26.1309L26.1547 8.66126ZM36.4676 15.1127H35.0656V14.2098H35.0418C34.8636 14.5424 34.6022 14.792 34.2577 14.9939C33.9131 15.1959 33.5567 15.291 33.2002 15.291C32.3567 15.291 31.7388 15.089 31.3587 14.6613C30.9785 14.2454 30.7884 13.6038 30.7884 12.7603V8.66126H32.2141V12.6177C32.2141 13.188 32.321 13.592 32.5468 13.8177C32.7606 14.0553 33.0695 14.1741 33.4616 14.1741C33.7586 14.1741 34.0082 14.1266 34.2101 14.0316C34.4121 13.9365 34.5785 13.8177 34.6973 13.6632C34.828 13.5088 34.9111 13.3187 34.9705 13.1048C35.0299 12.891 35.0537 12.6533 35.0537 12.4038V8.66126H36.4794V15.1127H36.4676ZM38.8913 13.0454C38.9388 13.4613 39.0933 13.7464 39.3666 13.9246C39.6398 14.091 39.9725 14.1741 40.3527 14.1741C40.4834 14.1741 40.6379 14.1622 40.8042 14.1385C40.9705 14.1147 41.1369 14.0791 41.2794 14.0197C41.4339 13.9603 41.5527 13.8771 41.6478 13.7583C41.7428 13.6395 41.7903 13.4969 41.7784 13.3187C41.7666 13.1405 41.7072 12.986 41.5765 12.8672C41.4458 12.7484 41.2913 12.6652 41.1012 12.5821C40.9111 12.5108 40.6854 12.4514 40.4359 12.4038C40.1864 12.3563 39.9369 12.2969 39.6755 12.2375C39.4141 12.1781 39.1527 12.1068 38.9032 12.0236C38.6537 11.9405 38.4398 11.8335 38.2379 11.6791C38.0478 11.5365 37.8814 11.3583 37.7745 11.1325C37.6557 10.9068 37.5963 10.6454 37.5963 10.3127C37.5963 9.95631 37.6794 9.67116 37.8577 9.43354C38.024 9.19591 38.2497 9.00582 38.5111 8.86324C38.7725 8.72067 39.0695 8.61374 39.3903 8.55433C39.7111 8.49492 40.02 8.47116 40.3052 8.47116C40.6379 8.47116 40.9586 8.50681 41.2557 8.57809C41.5527 8.64938 41.8379 8.75631 42.0755 8.92265C42.325 9.0771 42.527 9.29096 42.6814 9.54047C42.8478 9.78997 42.9428 10.0989 42.9903 10.4553H41.5052C41.4339 10.1108 41.2794 9.88502 41.0418 9.76621C40.7923 9.6474 40.519 9.58799 40.1983 9.58799C40.1032 9.58799 39.9725 9.59987 39.8418 9.61176C39.6992 9.63552 39.5804 9.65928 39.4497 9.70681C39.3309 9.75433 39.224 9.82562 39.1408 9.90878C39.0577 9.99195 39.0101 10.1108 39.0101 10.2533C39.0101 10.4316 39.0695 10.5622 39.1884 10.6692C39.3072 10.7761 39.4616 10.8593 39.6636 10.9424C39.8537 11.0137 40.0794 11.0731 40.3289 11.1207C40.5785 11.1682 40.8398 11.2276 41.1012 11.287C41.3626 11.3464 41.6121 11.4177 41.8616 11.5009C42.1111 11.584 42.3369 11.691 42.527 11.8454C42.7171 11.988 42.8834 12.1662 43.0022 12.3801C43.121 12.5939 43.1804 12.8672 43.1804 13.1761C43.1804 13.5563 43.0973 13.8771 42.919 14.1504C42.7408 14.4118 42.5151 14.6375 42.2418 14.8038C41.9686 14.9702 41.6478 15.089 41.3151 15.1722C40.9705 15.2434 40.6379 15.291 40.3052 15.291C39.9012 15.291 39.521 15.2434 39.1765 15.1484C38.8319 15.0533 38.523 14.9108 38.2735 14.7325C38.024 14.5424 37.822 14.3167 37.6794 14.0316C37.5369 13.7583 37.4537 13.4256 37.4418 13.0335H38.8794V13.0454H38.8913ZM43.5844 8.66126H44.6656V6.71275H46.0913V8.64938H47.3745V9.70681H46.0913V13.1524C46.0913 13.3068 46.1032 13.4256 46.1151 13.5444C46.127 13.6514 46.1626 13.7464 46.1983 13.8177C46.2458 13.889 46.3171 13.9484 46.4002 13.984C46.4953 14.0197 46.6141 14.0434 46.7804 14.0434C46.8755 14.0434 46.9824 14.0434 47.0775 14.0316C47.1725 14.0197 47.2794 14.0078 47.3745 13.984V15.089C47.22 15.1127 47.0656 15.1246 46.9111 15.1365C46.7567 15.1603 46.6141 15.1603 46.4478 15.1603C46.0676 15.1603 45.7705 15.1246 45.5448 15.0533C45.319 14.9821 45.1408 14.8751 45.0101 14.7444C44.8794 14.6019 44.7963 14.4355 44.7487 14.2335C44.7012 14.0316 44.6775 13.782 44.6656 13.5207V9.71869H43.5844V8.6375V8.66126ZM48.3725 8.66126H49.7151V9.54047H49.7388C49.9408 9.16027 50.2141 8.89888 50.5705 8.73255C50.927 8.56621 51.3072 8.48304 51.7349 8.48304C52.2458 8.48304 52.6854 8.56621 53.0656 8.75631C53.4458 8.93453 53.7547 9.17215 54.0042 9.49294C54.2537 9.80185 54.4438 10.1702 54.5626 10.586C54.6814 11.0019 54.7527 11.4533 54.7527 11.9167C54.7527 12.3563 54.6933 12.7722 54.5864 13.1761C54.4676 13.5801 54.3012 13.9484 54.0755 14.2573C53.8497 14.5662 53.5646 14.8157 53.2082 15.0058C52.8517 15.1959 52.4478 15.291 51.9725 15.291C51.7705 15.291 51.5567 15.2672 51.3547 15.2316C51.1527 15.1959 50.9507 15.1365 50.7606 15.0533C50.5705 14.9702 50.3923 14.8632 50.2379 14.7325C50.0715 14.6019 49.9408 14.4474 49.8339 14.2811H49.8101V17.5009H48.3844V8.66126H48.3725ZM53.3507 11.8929C53.3507 11.6078 53.3151 11.3226 53.2319 11.0494C53.1606 10.7761 53.0418 10.5385 52.8874 10.3246C52.7329 10.1108 52.5428 9.94443 52.3289 9.81374C52.1032 9.68304 51.8418 9.62364 51.5567 9.62364C50.9626 9.62364 50.5111 9.82562 50.2022 10.2415C49.9052 10.6573 49.7507 11.2157 49.7507 11.9048C49.7507 12.2375 49.7864 12.5345 49.8695 12.8078C49.9527 13.0811 50.0596 13.3187 50.226 13.5207C50.3804 13.7226 50.5705 13.8771 50.7963 13.9959C51.022 14.1147 51.2715 14.1741 51.5685 14.1741C51.9012 14.1741 52.1626 14.1028 52.3884 13.9722C52.6141 13.8415 52.7923 13.6632 52.9468 13.4613C53.0893 13.2474 53.1963 13.0098 53.2557 12.7365C53.3151 12.4514 53.3507 12.1781 53.3507 11.8929V11.8929ZM55.8577 6.20186H57.2834V7.54443H55.8577V6.20186ZM55.8577 8.66126H57.2834V15.1127H55.8577V8.66126ZM58.5547 6.20186H59.9804V15.1127H58.5547V6.20186ZM64.3289 15.291C63.818 15.291 63.3547 15.2078 62.9507 15.0296C62.5468 14.8514 62.2141 14.6256 61.9289 14.3286C61.6557 14.0316 61.4418 13.6632 61.2992 13.2474C61.1567 12.8316 61.0735 12.3682 61.0735 11.8811C61.0735 11.3939 61.1448 10.9424 61.2992 10.5266C61.4418 10.1108 61.6557 9.75433 61.9289 9.44542C62.2022 9.14839 62.5468 8.91077 62.9507 8.74443C63.3547 8.57809 63.818 8.48304 64.3289 8.48304C64.8398 8.48304 65.3032 8.56621 65.7072 8.74443C66.1111 8.91077 66.4438 9.14839 66.7289 9.44542C67.0022 9.74245 67.2161 10.1108 67.3586 10.5266C67.5012 10.9424 67.5844 11.3939 67.5844 11.8811C67.5844 12.3801 67.5131 12.8316 67.3586 13.2474C67.2042 13.6632 67.0022 14.0197 66.7289 14.3286C66.4557 14.6256 66.1111 14.8632 65.7072 15.0296C65.3032 15.1959 64.8517 15.291 64.3289 15.291ZM64.3289 14.1623C64.6378 14.1623 64.923 14.091 65.1487 13.9603C65.3864 13.8296 65.5646 13.6514 65.719 13.4375C65.8735 13.2236 65.9804 12.9741 66.0517 12.7127C66.123 12.4395 66.1586 12.1662 66.1586 11.8811C66.1586 11.6078 66.123 11.3345 66.0517 11.0613C65.9804 10.788 65.8735 10.5504 65.719 10.3365C65.5646 10.1226 65.3745 9.95631 65.1487 9.82562C64.9111 9.69493 64.6378 9.62364 64.3289 9.62364C64.02 9.62364 63.7349 9.69493 63.5091 9.82562C63.2715 9.95631 63.0933 10.1345 62.9388 10.3365C62.7844 10.5504 62.6775 10.788 62.6062 11.0613C62.5349 11.3345 62.4992 11.6078 62.4992 11.8811C62.4992 12.1662 62.5349 12.4395 62.6062 12.7127C62.6775 12.986 62.7844 13.2236 62.9388 13.4375C63.0933 13.6514 63.2834 13.8296 63.5091 13.9603C63.7468 14.1028 64.02 14.1623 64.3289 14.1623ZM68.0121 8.66126H69.0933V6.71275H70.519V8.64938H71.8022V9.70681H70.519V13.1524C70.519 13.3068 70.5309 13.4256 70.5428 13.5444C70.5547 13.6514 70.5903 13.7464 70.626 13.8177C70.6735 13.889 70.7448 13.9484 70.8279 13.984C70.923 14.0197 71.0418 14.0434 71.2081 14.0434C71.3032 14.0434 71.4101 14.0434 71.5052 14.0316C71.6002 14.0197 71.7072 14.0078 71.8022 13.984V15.089C71.6478 15.1127 71.4933 15.1246 71.3388 15.1365C71.1844 15.1603 71.0418 15.1603 70.8755 15.1603C70.4953 15.1603 70.1982 15.1246 69.9725 15.0533C69.7468 14.9821 69.5685 14.8751 69.4378 14.7444C69.3072 14.6019 69.224 14.4355 69.1765 14.2335C69.1289 14.0316 69.1052 13.782 69.0933 13.5207V9.71869H68.0121V8.6375V8.66126Z" fill="black"/>
<path d="M17.5884 6.20198H11.0656L9.05771 0L7.03791 6.20198L0.515137 6.1901L5.79038 10.0277L3.77058 16.2297L9.04583 12.3921L14.3211 16.2297L12.3132 10.0277L17.5884 6.20198Z" fill="#24AD7A"/>
<path d="M12.7645 11.4296L12.3131 10.0276L9.05762 12.3919L12.7645 11.4296Z" fill="#005128"/>
</svg>
