<svg width="73" height="37" viewBox="0 0 73 37" fill="none" xmlns="http://www.w3.org/2000/svg">
<path d="M49.4955 7.72746C49.2303 7.17087 48.8738 6.66262 48.4407 6.22377C48.3538 6.13942 48.2605 6.06181 48.1618 5.99163C48.0875 5.93398 48.01 5.88053 47.9297 5.83153H47.913L47.8921 5.81922C47.8053 5.77208 47.7161 5.72953 47.6248 5.69176H47.6014C47.3723 5.60121 47.1281 5.55463 46.8816 5.55444H46.7794C46.5085 5.57168 46.2443 5.64434 46.0036 5.76873C45.7188 5.91989 45.4575 6.11154 45.2277 6.33769H45.2135L45.1994 6.35185C45.1904 6.36221 45.1803 6.3715 45.1692 6.37956L45.1249 6.42143C44.9672 6.56983 44.809 6.73054 44.6255 6.91835L44.4956 7.05382C44.3308 7.21871 44.1674 7.38497 44.0054 7.55258C44.0559 6.67451 44.1101 5.7755 44.1538 4.88327C44.1538 4.76935 44.1655 4.65112 44.1748 4.53906C44.2074 4.14928 44.2154 3.75704 44.1982 3.36604V3.27059C44.1748 2.82478 44.1378 2.15299 43.6932 1.57726C43.3669 1.14869 42.7154 0.647461 41.4753 0.647461C41.1946 0.649355 40.9144 0.670339 40.6366 0.710268C40.1802 0.775081 39.7301 0.878489 39.2912 1.01938C37.9113 1.47258 37.1145 2.1807 36.9143 3.14313C36.7678 3.85618 37.0307 4.47687 37.2025 4.88758L37.2395 4.97625C37.3952 5.33646 37.5744 5.6856 37.7764 6.0218L37.9439 6.32168C38.3713 7.09912 38.8042 7.87356 39.2425 8.64494L38.5775 8.4128L38.4082 8.35245C38.1619 8.26193 37.9439 8.18497 37.7413 8.11969L37.6859 8.10368L37.6465 8.09199H37.6089C37.3028 7.98947 36.9833 7.93242 36.6606 7.92265H36.6102C36.3555 7.92157 36.1034 7.97205 35.8688 8.07105C35.6089 8.18065 35.3762 8.34445 35.1853 8.55196C35.1217 8.62699 35.0613 8.70464 35.0043 8.78471L34.9907 8.80319L34.9765 8.82412C34.8591 9.00269 34.7632 9.19449 34.6908 9.39555V9.40971C34.4936 9.9908 34.3954 10.6009 34.4002 11.2145C33.8078 8.89124 31.8657 7.17389 29.5745 7.17389C28.7428 7.17655 27.9267 7.39965 27.2094 7.82044C26.8051 7.47851 26.2968 7.28382 25.7675 7.26816C25.2383 7.2525 24.7194 7.41681 24.2956 7.73423V6.51195C24.2813 5.89624 24.0288 5.31008 23.5911 4.87677C23.1534 4.44347 22.5648 4.19681 21.9489 4.18869C21.3248 4.19097 20.727 4.44087 20.2869 4.8835C19.8468 5.32613 19.6004 5.92533 19.6017 6.54951V9.0889C19.5431 9.01186 19.4804 8.93806 19.4139 8.86784C18.7382 8.16008 17.8877 7.6431 16.9484 7.36908C16.0023 7.10292 15.0011 7.10377 14.0555 7.37155H14.0303C13.2679 7.57127 12.5629 7.94687 11.9718 8.46821C11.7851 8.07586 11.4906 7.74475 11.1227 7.51359C10.7548 7.28242 10.3287 7.16075 9.89423 7.16281C9.67379 7.16281 9.45519 7.19482 9.24399 7.25763C8.08205 7.60861 7.61715 8.73792 7.3339 9.41156C7.30804 9.47436 7.28464 9.53286 7.26001 9.58828C7.18982 9.75577 7.1227 9.90416 7.06913 10.023C7.01513 10.1381 6.96542 10.2552 6.92011 10.374C6.88748 10.4645 6.85977 10.5267 6.82775 10.6061C6.63383 10.2124 6.43781 9.81978 6.2397 9.42818L6.12271 9.18188C5.83022 8.5538 5.39118 7.61108 4.29944 7.28103C3.75518 7.11472 3.16855 7.15651 2.65336 7.39829C2.13817 7.64007 1.73115 8.0646 1.51129 8.58952C0.983584 9.83705 1.63875 10.938 1.98973 11.5285C2.24096 11.9473 2.56362 12.5014 2.86596 13.0784C2.99527 13.3105 3.04453 13.4084 3.33024 13.9632L3.37211 14.0402L3.73479 14.7373C3.821 14.8974 3.91583 15.0808 4.02728 15.2951C4.14612 15.5273 4.28097 15.7779 4.42937 16.0568C4.40412 16.0919 4.37826 16.1289 4.34809 16.164L4.32715 16.1892L4.29452 16.1732C4.06281 16.0555 3.81696 15.968 3.563 15.9127C3.3839 15.8712 3.20067 15.8501 3.01682 15.8499C2.61459 15.8498 2.21941 15.9556 1.87102 16.1566C1.52264 16.3577 1.23334 16.6469 1.03223 16.9952C0.831311 17.3461 0.728186 17.7445 0.733601 18.1488C0.739016 18.5531 0.852774 18.9485 1.06302 19.2939C1.75944 20.4552 3.17938 20.8782 4.28343 20.8782C4.57592 20.8794 4.86841 20.8493 5.15412 20.7877C7.63378 20.2489 8.70705 17.8598 9.49029 16.1153L9.64793 15.7643C9.80943 15.3942 9.97756 15.0269 10.1522 14.6627L10.308 14.321C10.4664 14.8295 10.6988 15.3119 10.9977 15.7526C11.1824 16.0273 11.3887 16.2865 11.6159 16.5266C11.8468 16.7625 12.098 16.9774 12.3665 17.1701C12.6374 17.3585 12.9268 17.5211 13.2286 17.6553C13.5364 17.7994 13.8585 17.9078 14.1904 17.9811C14.3936 18.0309 14.6005 18.0691 14.8086 18.0944C14.9995 18.1147 15.1904 18.1233 15.3825 18.1202H15.5518C16.2401 18.121 16.9233 18.0031 17.5715 17.7717C17.8695 17.6732 18.1583 17.547 18.4336 17.3955C18.9229 17.1113 19.3246 16.6981 19.5949 16.2009C19.6664 16.7677 19.9415 17.2893 20.3689 17.6684C20.7962 18.0475 21.3468 18.2584 21.9181 18.2619C22.4212 18.2619 22.9101 18.0987 23.3128 17.797V18.5316C23.3128 19.1539 23.5601 19.7508 24.0002 20.1909C24.4402 20.631 25.0371 20.8782 25.6595 20.8782C26.2819 20.8782 26.8788 20.631 27.3188 20.1909C27.7589 19.7508 28.0062 19.1539 28.0062 18.5316V17.8906C28.5012 18.063 29.0222 18.151 29.5468 18.1504C32.3023 18.1504 34.5443 15.6966 34.5492 12.6806C34.6059 12.8635 34.6841 13.039 34.7813 13.204C34.9291 13.4368 35.1225 13.6369 35.3509 13.7914C35.6791 14.0104 36.0625 14.1321 36.4568 14.1424H36.6379C36.9447 14.1351 37.2495 14.0915 37.5461 14.0125H37.5954L38.8798 13.7219C38.6779 14.0008 38.4802 14.2724 38.2899 14.5421L38.1828 14.6929C38.0276 14.9066 37.8946 15.095 37.7764 15.276L37.7438 15.3272L37.7204 15.3622L37.7093 15.3783V15.3949C37.5251 15.663 37.3809 15.9565 37.2813 16.2662C37.2 16.5283 37.1748 16.8046 37.2074 17.0771C37.2432 17.3555 37.3386 17.6233 37.4858 17.8622V17.8739C37.5393 17.9577 37.5997 18.039 37.66 18.1061L37.6742 18.1202L37.6859 18.1362C37.7505 18.2132 37.8226 18.2853 37.8952 18.3548C37.9802 18.4392 38.072 18.5168 38.1693 18.5876C38.6286 18.9016 39.1311 19.1479 39.6606 19.3191C40.112 19.4694 40.5806 19.5593 41.0547 19.5864H41.1902C41.2677 19.5872 41.3452 19.5833 41.4223 19.5747C41.519 19.5667 41.615 19.5537 41.7099 19.5352H41.7517C41.849 19.5125 41.9457 19.4841 42.0399 19.4515H42.0541C42.3147 19.3547 42.5522 19.2043 42.7511 19.01C42.9422 18.8154 43.0915 18.5839 43.1902 18.3296C43.3025 18.0249 43.3699 17.7055 43.3903 17.3813V17.3395C43.3916 17.3255 43.3916 17.3115 43.3903 17.2976V17.244C43.4106 17.0119 43.4204 16.7982 43.4315 16.547V16.1898L43.511 16.3333L43.6015 16.5033C43.7271 16.7354 43.8336 16.9306 43.9451 17.1165L43.9734 17.1627L43.9986 17.2046V17.2188L44.011 17.2372C44.1889 17.5131 44.4063 17.7606 44.6563 17.9737C44.8564 18.1615 45.0935 18.305 45.3533 18.3942H45.3675C45.5688 18.462 45.78 18.4965 45.9925 18.4965C46.0584 18.4965 46.1242 18.4922 46.1895 18.4848H46.2111C46.3108 18.4737 46.41 18.4571 46.5085 18.4337H46.5497C46.6452 18.409 46.7394 18.3776 46.8311 18.3413C46.9407 18.3 47.0466 18.2508 47.1495 18.1947C47.5653 17.9625 47.9482 17.6756 48.288 17.3419C48.6892 16.9558 49.0333 16.5146 49.3102 16.0316C49.417 15.8391 49.4983 15.6336 49.5522 15.4201V15.3807C49.5751 15.2843 49.5921 15.1867 49.6033 15.0882V15.0574C49.6295 14.7814 49.5978 14.5029 49.5103 14.2397C49.4187 13.9797 49.2728 13.7421 49.0823 13.5427C48.8573 13.309 48.6 13.1087 48.3182 12.9479H48.3016L48.2831 12.9368L48.2462 12.9158L48.1994 12.8851C48.014 12.7761 47.8071 12.6529 47.5885 12.5464L47.4075 12.4485C47.1187 12.2873 46.8266 12.1323 46.5313 11.9836L47.8046 11.6886H47.8539C48.2155 11.6203 48.5642 11.4957 48.8872 11.3192C49.2366 11.1372 49.5276 10.8601 49.7264 10.5199C49.857 10.2829 49.9364 10.0212 49.9586 9.75084C50.0608 8.91218 49.708 8.1708 49.4968 7.72746H49.4955Z" fill="white" fill-opacity="0.96"/>
<path d="M39.8973 12.2804L40.6639 12.1031C40.6799 12.0994 40.707 12.0932 40.739 12.0828C40.9508 12.026 41.1322 11.8892 41.2451 11.7013C41.358 11.5134 41.3936 11.289 41.3443 11.0754L41.3412 11.0618C41.3159 10.9595 41.2716 10.8628 41.2107 10.7767C41.1248 10.6678 41.0186 10.5766 40.8979 10.5083C40.7558 10.4273 40.607 10.3585 40.4533 10.3026L39.6128 9.99534C39.1411 9.81985 38.6695 9.64928 38.1929 9.48241C37.8844 9.37281 37.6227 9.27613 37.3954 9.20532C37.3522 9.19335 37.3093 9.18021 37.2668 9.16591C36.9921 9.08217 36.7988 9.04707 36.6356 9.04584C36.5265 9.04178 36.4179 9.06153 36.3173 9.10372C36.2121 9.14924 36.1177 9.21638 36.0402 9.30076C36.0017 9.34443 35.9655 9.39005 35.9318 9.43746C35.8662 9.53825 35.8121 9.64606 35.7705 9.75889C35.6143 10.2201 35.5365 10.7042 35.5402 11.1911C35.5432 11.6308 35.5549 12.1954 35.7969 12.5784C35.8554 12.677 35.9336 12.7619 36.0266 12.8278C36.199 12.9467 36.3727 12.9627 36.5543 12.9756C36.8253 12.9947 37.087 12.9288 37.3486 12.8679L39.8954 12.2798L39.8973 12.2804ZM48.4502 8.21087C48.2409 7.77162 47.9595 7.37054 47.6177 7.0243C47.5735 6.98027 47.5261 6.93952 47.476 6.90238C47.4297 6.86765 47.3816 6.83539 47.3319 6.80571C47.2808 6.77768 47.2282 6.7524 47.1743 6.72997C47.068 6.68817 46.9541 6.66929 46.84 6.67455C46.731 6.68071 46.6244 6.7115 46.5278 6.7626C46.3818 6.83526 46.2236 6.95226 46.013 7.14745C45.984 7.17639 45.9477 7.20903 45.9145 7.23982C45.7414 7.40299 45.5481 7.60435 45.3184 7.83834C44.9631 8.19732 44.614 8.55816 44.2661 8.92207L43.6442 9.56739C43.5306 9.68508 43.4272 9.81218 43.3351 9.94731C43.2562 10.0617 43.2003 10.1903 43.1706 10.326C43.154 10.4303 43.1565 10.5367 43.178 10.64L43.1811 10.6536C43.2303 10.867 43.3603 11.053 43.5438 11.1724C43.7274 11.2919 43.9501 11.3354 44.1651 11.294C44.191 11.2903 44.2167 11.2854 44.2421 11.2792L47.5561 10.5132C47.8178 10.4528 48.0826 10.3974 48.3172 10.2607C48.4748 10.1702 48.6244 10.0797 48.7273 9.89743C48.782 9.79704 48.8152 9.68629 48.8245 9.57231C48.8756 9.12034 48.6398 8.60742 48.4502 8.21087ZM42.5173 9.60433C42.7575 9.30261 42.7575 8.85311 42.7784 8.48488C42.8511 7.25644 42.9268 6.028 42.9878 4.79895C43.0106 4.33344 43.0604 3.87408 43.0327 3.40487C43.0099 3.01817 43.0075 2.5736 42.763 2.25587C42.332 1.69552 41.412 1.74171 40.7846 1.82914C40.591 1.85588 40.3989 1.89205 40.2088 1.93752C40.018 1.98308 39.8283 2.03296 39.6436 2.09269C39.0414 2.28973 38.1947 2.6518 38.0518 3.34576C37.9706 3.738 38.1627 4.13886 38.3105 4.49723C38.4909 4.93072 38.7366 5.32173 38.9607 5.72998C39.5537 6.80817 40.1571 7.88021 40.7587 8.95286C40.9391 9.27305 41.1343 9.67822 41.4822 9.84448C41.5056 9.85433 41.529 9.86295 41.553 9.87095C41.7088 9.93007 41.8794 9.94115 42.0413 9.90359L42.0703 9.89743C42.2205 9.85618 42.356 9.77428 42.4625 9.6616C42.4822 9.64312 42.5001 9.62465 42.5179 9.60433H42.5173ZM42.2298 12.8931C42.136 12.7613 42.003 12.6624 41.8497 12.6108C41.6964 12.5591 41.5307 12.5573 41.3763 12.6055C41.34 12.6175 41.3046 12.6321 41.2704 12.6493C41.2175 12.6762 41.167 12.7078 41.1196 12.7435C40.984 12.8503 40.8629 12.9743 40.7593 13.1123C40.7329 13.1462 40.7082 13.1911 40.6762 13.2207L40.143 13.9534C39.8412 14.3648 39.5426 14.7767 39.2476 15.1948C39.0543 15.4651 38.888 15.6936 38.7557 15.8949C38.731 15.9331 38.7052 15.975 38.6818 16.0095C38.5235 16.2533 38.4342 16.4319 38.388 16.5907C38.3536 16.6963 38.3426 16.8081 38.356 16.9183C38.3708 17.0328 38.4096 17.1431 38.4693 17.2422C38.5013 17.2915 38.5358 17.3395 38.5728 17.3857C38.6526 17.4775 38.7424 17.5601 38.8406 17.632C39.2089 17.8881 39.6116 18.0722 40.0352 18.2145C40.388 18.3315 40.7544 18.4017 41.1251 18.4226C41.1885 18.4257 41.2519 18.4245 41.3147 18.4189C41.373 18.4135 41.4309 18.4053 41.4884 18.3943C41.5459 18.3809 41.6026 18.3645 41.6583 18.345C41.7667 18.3044 41.8653 18.2415 41.9477 18.1603C42.0259 18.0821 42.0863 17.9879 42.1239 17.8838C42.1854 17.7299 42.2261 17.5353 42.2532 17.2459C42.255 17.2046 42.2612 17.1554 42.2655 17.1104C42.2864 16.8703 42.2963 16.587 42.311 16.2558C42.3375 15.7453 42.3578 15.2373 42.3739 14.7281L42.4083 13.8217C42.4163 13.6135 42.4096 13.382 42.3517 13.1745C42.3262 13.0748 42.2851 12.9798 42.2298 12.8931ZM48.2476 14.3112C48.1367 14.1887 47.9791 14.0674 47.7303 13.9171C47.6946 13.8968 47.6521 13.8703 47.6133 13.8469C47.4065 13.7219 47.1571 13.5914 46.8658 13.4331C46.4182 13.1868 45.9705 12.9479 45.5179 12.7102L44.7193 12.2866C44.678 12.2743 44.6362 12.2447 44.5967 12.2256C44.4432 12.1472 44.2801 12.089 44.1115 12.0526C44.0535 12.0414 43.9945 12.0352 43.9354 12.0341C43.8971 12.0339 43.8589 12.0362 43.8209 12.0409C43.661 12.0656 43.513 12.1401 43.398 12.2539C43.283 12.3677 43.2069 12.5149 43.1805 12.6745C43.1688 12.7761 43.1725 12.8789 43.1922 12.9787C43.231 13.1917 43.3258 13.4017 43.4243 13.5858L43.8504 14.3857C44.0881 14.8364 44.3283 15.2847 44.5746 15.7317C44.7334 16.023 44.8658 16.2724 44.9896 16.4793C45.013 16.5181 45.0395 16.5599 45.0598 16.5963C45.2107 16.8444 45.3313 17.0008 45.4539 17.1135C45.5355 17.192 45.6335 17.2515 45.7408 17.2877C45.8481 17.3239 45.9621 17.3359 46.0746 17.3229C46.1332 17.3157 46.1913 17.3055 46.2488 17.2921C46.3666 17.2605 46.4804 17.2157 46.5881 17.1585C46.9122 16.9768 47.211 16.7532 47.4766 16.4934C47.7956 16.1794 48.0776 15.837 48.2968 15.4454C48.3276 15.39 48.3535 15.3327 48.3757 15.273C48.3963 15.2183 48.4142 15.1626 48.4292 15.1061C48.4422 15.0483 48.452 14.9904 48.4588 14.9319C48.4698 14.8169 48.4566 14.7009 48.42 14.5914C48.3838 14.4862 48.325 14.3904 48.2476 14.3106V14.3112Z" fill="#FF1A1A"/>
<path fill-rule="evenodd" clip-rule="evenodd" d="M20.7443 6.53346C20.7443 5.8746 21.2806 5.33643 21.9284 5.33643C22.567 5.33643 23.0854 5.8746 23.1131 6.54331V15.8868C23.1131 16.5457 22.5762 17.0839 21.9284 17.0839C21.7718 17.0838 21.6168 17.0527 21.4724 16.9923C21.3279 16.932 21.1968 16.8436 21.0867 16.7323C20.9766 16.621 20.8896 16.489 20.8309 16.3438C20.7721 16.1987 20.7427 16.0434 20.7443 15.8868V6.53346ZM19.6427 12.305C19.6335 12.4903 19.5873 12.8339 19.3472 13.0845C19.0879 13.3536 18.7363 13.4183 18.5325 13.4183C17.6858 13.4232 16.8392 13.4256 15.9925 13.4275C15.1458 13.43 14.2992 13.4324 13.4525 13.4367C13.5264 13.6689 13.6742 14.0217 14.0073 14.3462C14.2105 14.5414 14.4051 14.6522 14.4888 14.699C14.5904 14.7637 14.942 14.9497 15.3767 14.9497C15.8398 14.9497 16.2468 14.8006 16.6452 14.5968L16.6778 14.5796C16.9549 14.4361 17.24 14.2883 17.5424 14.2348C17.8379 14.1886 18.1532 14.244 18.3841 14.4484C18.6618 14.6898 18.7733 15.042 18.6711 15.4041C18.551 15.8123 18.2086 16.1652 17.8478 16.3782C17.6413 16.4991 17.4245 16.6015 17.2 16.6842C16.6273 16.8875 16.0217 16.9821 15.4143 16.9632C15.2665 16.9632 15.1089 16.9632 14.9513 16.9447C14.785 16.9262 14.6187 16.8887 14.4611 16.8517C14.2056 16.7963 13.9571 16.7122 13.7204 16.6011C13.4836 16.4961 13.2574 16.3687 13.0449 16.2206C12.8329 16.0682 12.6349 15.8974 12.4531 15.7101C12.2724 15.5205 12.1082 15.3157 11.9624 15.0981C11.463 14.337 11.2315 13.3998 11.2776 12.4903C11.3146 11.5999 11.6108 10.7089 12.1477 9.98541C12.2056 9.89427 12.2727 9.8173 12.3361 9.74464C12.3638 9.71262 12.3909 9.68184 12.4162 9.65105C13.0787 8.84071 13.9642 8.58455 14.3293 8.47864L14.3497 8.47249C15.0908 8.26206 15.8758 8.26206 16.6169 8.47249C16.793 8.51928 17.7831 8.82531 18.551 9.65105C18.5879 9.68799 18.6901 9.80868 18.8195 9.98541C19.1479 10.4327 19.3892 10.9378 19.5307 11.4743L19.5319 11.4792C19.5873 11.6831 19.6427 11.9614 19.6427 12.3044V12.305ZM14.2111 10.7742C13.8458 11.0713 13.5915 11.4831 13.4894 11.9429H17.5239C17.415 11.4835 17.1582 11.0727 16.793 10.7736C16.4251 10.4786 15.969 10.3153 15.4974 10.3099C15.0284 10.3146 14.5747 10.478 14.2105 10.7736L14.2111 10.7742ZM29.5534 8.31485C28.4986 8.31485 27.5361 8.78837 26.8514 9.55868V9.53036C26.8377 9.22101 26.7029 8.92945 26.4763 8.71851C26.2496 8.50758 25.9491 8.39417 25.6395 8.40273C25.33 8.41129 25.0362 8.54114 24.8215 8.76429C24.6068 8.98743 24.4884 9.286 24.4918 9.59563V18.5124C24.4911 18.6684 24.5212 18.8229 24.5805 18.9671C24.6397 19.1114 24.7269 19.2425 24.837 19.3529C24.9471 19.4633 25.078 19.5508 25.2221 19.6104C25.3662 19.67 25.5206 19.7006 25.6765 19.7002C25.8324 19.7005 25.9868 19.6699 26.1308 19.6102C26.2748 19.5506 26.4056 19.463 26.5157 19.3527C26.6257 19.2423 26.7129 19.1112 26.7721 18.967C26.8313 18.8228 26.8614 18.6683 26.8606 18.5124V15.7286C27.5454 16.4897 28.4986 16.9724 29.5626 16.9724C31.682 16.9724 33.4031 15.0513 33.4031 12.6572C33.3938 10.2637 31.6728 8.31485 29.5534 8.31485ZM29.0355 15.0328C27.8323 15.0328 26.8514 13.9841 26.8514 12.6763C26.8514 11.3585 27.8231 10.3099 29.0355 10.3099C30.2381 10.3099 31.219 11.3585 31.219 12.6763C31.2097 13.9841 30.2381 15.0328 29.0355 15.0328ZM9.50118 13.2791L9.11263 14.1332C8.93653 14.5038 8.76042 14.8844 8.59416 15.2649L8.43345 15.6221C7.69331 17.2674 6.81585 19.2206 4.90207 19.635C3.97659 19.8394 2.57943 19.5611 2.06096 18.6885C1.54311 17.8074 2.31096 16.7957 3.3011 17.0278C3.4575 17.0623 3.61083 17.1387 3.766 17.2163C4.024 17.3456 4.2857 17.4755 4.56895 17.4176C4.83742 17.3714 5.00367 17.1762 5.21673 16.9256C5.51229 16.5826 5.64222 16.2206 5.69763 16.0069L5.68409 15.9749C5.6798 15.9638 5.67507 15.9529 5.66992 15.9423C5.42916 15.4928 5.21857 15.0913 5.04308 14.7557C4.94442 14.5662 4.84487 14.3771 4.74444 14.1886L4.34112 13.4226C4.04555 12.8622 3.99629 12.7699 3.86575 12.5279C3.57797 11.9847 3.27552 11.4494 2.95874 10.9226C2.61638 10.3469 2.26478 9.70708 2.55172 9.02913C2.65957 8.76665 2.8621 8.55426 3.11916 8.43405C3.37622 8.31385 3.66906 8.2946 3.93964 8.38012C4.53508 8.56054 4.79924 9.12765 5.04555 9.65721C5.0905 9.75326 5.13421 9.84809 5.17978 9.93861C5.57756 10.7274 5.9661 11.5162 6.35465 12.305C6.38913 12.3832 6.44085 12.4897 6.50489 12.6202C6.56154 12.736 6.62743 12.8708 6.69701 13.0192L6.79984 13.2335C6.83987 13.3173 6.87497 13.3887 6.90083 13.446C7.08124 12.9965 7.26412 12.5488 7.44639 12.1005C7.62927 11.6529 7.81215 11.2052 7.99257 10.7551C7.99749 10.7305 8.0406 10.6344 8.10587 10.4897C8.16067 10.3672 8.23087 10.2102 8.30722 10.0316L8.38542 9.84255C8.62557 9.25758 8.91497 8.55377 9.55659 8.36165C9.78433 8.29556 10.027 8.30202 10.2509 8.38015C10.4748 8.45828 10.6688 8.60418 10.806 8.79761C10.9445 8.99219 10.9999 9.21509 11.0092 9.43799C11.0166 9.9306 10.7789 10.4589 10.5744 10.9121C10.5252 11.023 10.4772 11.1289 10.4359 11.2286L10.4113 11.2828C10.3546 11.4103 10.2007 11.7551 9.9359 12.3234C9.84046 12.5266 9.74871 12.7311 9.65573 12.9374L9.50118 13.2791Z" fill="black"/>
<rect x="1" y="23.0291" width="12.7061" height="13.1116" rx="1.62205" fill="#F43939"/>
<path d="M7.11388 26.0506C7.21531 25.8583 7.49065 25.8583 7.59208 26.0506L8.53039 27.829C8.56951 27.9032 8.64081 27.955 8.72341 27.9693L10.7047 28.3121C10.9189 28.3491 11.004 28.611 10.8525 28.7669L9.45109 30.2088C9.39266 30.2689 9.36543 30.3528 9.37736 30.4357L9.66359 32.426C9.69453 32.6412 9.47178 32.803 9.27671 32.7071L7.47227 31.8199C7.39704 31.7829 7.30892 31.7829 7.23369 31.8199L5.42925 32.7071C5.23418 32.803 5.01143 32.6412 5.04237 32.426L5.3286 30.4357C5.34053 30.3528 5.3133 30.2689 5.25487 30.2088L3.85344 28.7669C3.70194 28.611 3.78703 28.3491 4.00122 28.3121L5.98256 27.9693C6.06515 27.955 6.13645 27.9032 6.17557 27.829L7.11388 26.0506Z" fill="white"/>
<rect x="15.7061" y="23.0291" width="12.7061" height="13.1116" rx="1.62205" fill="#F43939"/>
<path d="M21.8199 26.0506C21.9214 25.8583 22.1967 25.8583 22.2981 26.0506L23.2364 27.829C23.2756 27.9032 23.3469 27.955 23.4295 27.9693L25.4108 28.3121C25.625 28.3491 25.7101 28.611 25.5586 28.7669L24.1571 30.2088C24.0987 30.2689 24.0715 30.3528 24.0834 30.4357L24.3696 32.426C24.4006 32.6412 24.1778 32.803 23.9828 32.7071L22.1783 31.8199C22.1031 31.7829 22.015 31.7829 21.9397 31.8199L20.1353 32.7071C19.9402 32.803 19.7175 32.6412 19.7484 32.426L20.0347 30.4357C20.0466 30.3528 20.0194 30.2689 19.9609 30.2088L18.5595 28.7669C18.408 28.611 18.4931 28.3491 18.7073 28.3121L20.6886 27.9693C20.7712 27.955 20.8425 27.9032 20.8816 27.829L21.8199 26.0506Z" fill="white"/>
<rect x="30.4121" y="23.0291" width="12.7061" height="13.1116" rx="1.62205" fill="#F43939"/>
<path d="M36.526 26.0506C36.6274 25.8583 36.9028 25.8583 37.0042 26.0506L37.9425 27.829C37.9816 27.9032 38.0529 27.955 38.1355 27.9693L40.1169 28.3121C40.331 28.3491 40.4161 28.611 40.2646 28.7669L38.8632 30.2088C38.8048 30.2689 38.7775 30.3528 38.7895 30.4357L39.0757 32.426C39.1066 32.6412 38.8839 32.803 38.6888 32.7071L36.8844 31.8199C36.8092 31.7829 36.721 31.7829 36.6458 31.8199L34.8414 32.7071C34.6463 32.803 34.4235 32.6412 34.4545 32.426L34.7407 30.4357C34.7526 30.3528 34.7254 30.2689 34.667 30.2088L33.2656 28.7669C33.1141 28.611 33.1991 28.3491 33.4133 28.3121L35.3947 27.9693C35.4773 27.955 35.5486 27.9032 35.5877 27.829L36.526 26.0506Z" fill="white"/>
<rect x="45.1182" y="23.0291" width="12.7061" height="13.1116" rx="1.62205" fill="#F43939"/>
<path d="M51.232 26.0506C51.3335 25.8583 51.6088 25.8583 51.7102 26.0506L52.6486 27.829C52.6877 27.9032 52.759 27.955 52.8416 27.9693L54.8229 28.3121C55.0371 28.3491 55.1222 28.611 54.9707 28.7669L53.5693 30.2088C53.5108 30.2689 53.4836 30.3528 53.4955 30.4357L53.7818 32.426C53.8127 32.6412 53.5899 32.803 53.3949 32.7071L51.5904 31.8199C51.5152 31.7829 51.4271 31.7829 51.3519 31.8199L49.5474 32.7071C49.3523 32.803 49.1296 32.6412 49.1605 32.426L49.4468 30.4357C49.4587 30.3528 49.4315 30.2689 49.373 30.2088L47.9716 28.7669C47.8201 28.611 47.9052 28.3491 48.1194 28.3121L50.1007 27.9693C50.1833 27.955 50.2546 27.9032 50.2937 27.829L51.232 26.0506Z" fill="white"/>
<rect x="59.8242" y="23.0291" width="12.7061" height="13.1116" rx="1.62205" fill="#D9D9DA"/>
<path d="M65.9381 26.0504C66.0395 25.8581 66.3149 25.8581 66.4163 26.0504L67.3546 27.8288C67.3937 27.9029 67.465 27.9547 67.5476 27.969L69.529 28.3118C69.7432 28.3489 69.8282 28.6108 69.6767 28.7666L68.2753 30.2086C68.2169 30.2687 68.1897 30.3525 68.2016 30.4355L68.4878 32.4258C68.5188 32.6409 68.296 32.8028 68.1009 32.7069L66.2965 31.8196C66.2213 31.7826 66.1331 31.7826 66.0579 31.8196L64.2535 32.7069C64.0584 32.8028 63.8356 32.6409 63.8666 32.4258L64.1528 30.4355C64.1647 30.3525 64.1375 30.2687 64.0791 30.2086L62.6777 28.7666C62.5262 28.6108 62.6112 28.3489 62.8254 28.3118L64.8068 27.969C64.8894 27.9547 64.9607 27.9029 64.9998 27.8288L65.9381 26.0504Z" fill="white"/>
</svg>
